<?xml version="1.0" encoding="UTF-8"?>
<svg id="Capa_1" xmlns="http://www.w3.org/2000/svg" version="1.1" viewBox="0 0 1200 458.3">
  <!-- Generator: Adobe Illustrator 29.3.0, SVG Export Plug-In . SVG Version: 2.1.0 Build 146)  -->
  <defs>
    <style>
      .st0 {
        fill: #f5ba1d;
      }

      .st1 {
        fill: #13467a;
      }

      .st2 {
        fill: #fefefe;
      }
    </style>
  </defs>
  <path class="st0" d="M597.4,311.9c182.7,0,365.3,0,548,0q3.7,0,3.7,3.8c0,31.4,0,62.8,0,94.2,0,2.2-.4,2.9-2.8,2.9-366.1,0-732.3,0-1098.4,0-2.4,0-2.9-.6-2.9-2.9,0-31.7,0-63.3,0-95,0-2.7.8-3.1,3.3-3.1,167,0,334,0,501,0s32,0,48,0ZM199.8,362.3c0,18.3,14.8,32.9,33.4,33,18.4,0,33.6-14.8,33.6-32.8,0-18.2-15-33-33.5-32.9-18.6,0-33.5,14.5-33.5,32.8ZM530.3,362.7c0-18.4-14.8-33.1-33.4-33.2-18.4,0-33.4,14.5-33.5,32.6-.1,18.2,14.8,33.1,33.2,33.2,18.5.1,33.7-14.5,33.8-32.6ZM544.7,328.4v58.5c0,6.8,0,6.7,6.9,6.8,2.1,0,2.6-.6,2.6-2.7,0-12.6,0-25.1,0-37.7,0-.8,0-1.7,0-2.6,15,15.6,30.8,29.8,46.1,44.9.7-1.3.4-2.3.4-3.2,0-18.3,0-36.6,0-54.9s0-6.5-6.5-6.6c-2.2,0-3,.4-3,2.8.1,12.3,0,24.6,0,36.9,0,.9.3,1.9-.3,2.8-14.8-15.4-30.6-29.6-46.3-45.1ZM842.9,350.7c15,15.6,30.8,29.9,46.6,45.3v-58.6c0-6.5,0-6.4-6.3-6.5-2.3,0-3,.4-2.9,2.9.1,12.3,0,24.6,0,36.9,0,.9.3,1.9-.3,2.9-14.9-15.5-30.7-29.8-46.4-45.2,0,1.8,0,2.7,0,3.6v55.4c0,6.2,0,6.1,6.1,6.3,2.6,0,3.4-.5,3.4-3.3-.2-13.2,0-26.4,0-39.8ZM1046,393.6c-.8-1.1-1.2-1.9-1.7-2.5-6-8-12.1-16-18.1-24-.5-.6-2.3-1.6.1-2.3,9.1-2.6,12.4-6.8,12.7-16.2.3-9.5-5.1-15.9-14.5-17.2-6.2-.9-12.5-.2-18.7-.5-2.2-.1-2.8.6-2.7,2.8,0,17.5,0,35,0,52.5,0,7.8,0,7.8,7.8,7.5,1.5,0,2-.6,1.9-2,0-3.2,0-6.3,0-9.5,0-4.9,0-9.8,0-14.8,0-.6-.3-1.3.5-1.6.7-.2,1,.5,1.4.9.3.4.6.8,1,1.3,5.9,8,11.9,15.9,17.8,23.9.6.7.9,1.7,2.1,1.7,3.3,0,6.6,0,10.4,0ZM374.6,354.3c0-6.2,0-10.9,0-15.6,0-2.4.8-5.7-.4-7.1-1.4-1.7-4.8-.3-7.3-.6-2.1-.3-2.4.7-2.4,2.5,0,6.9.1,13.7,0,20.6,0,6.3.4,12.7-.3,19-1,8.3-5.9,12.7-14.3,12.9-9.6.2-14.8-3.6-16.3-12.1-.3-1.8-.3-3.7-.3-5.5,0-9.8,0-19.7,0-29.5,0-2.5,1.1-5.8-.5-7.3-1.6-1.5-4.9-.3-7.4-.4-.2,0-.4,0-.5,0-1.2-.1-1.8.3-1.7,1.6.2,14.1-.5,28.3.4,42.4.6,9.9,6.3,16.7,15.5,19.1,5.9,1.5,11.8,1.7,17.8.5,10.5-2.2,16-8.2,17.4-18.7,1-7.6.1-15.3.4-21.5ZM953.8,362c0,9.8,0,19.5,0,29.3,0,1.9.6,2.4,2.4,2.3,8.6,0,17.2,0,25.9,0,6.9,0,6.8,0,6.8-6.9,0-1.9-.7-2.3-2.4-2.3-6.8,0-13.5,0-20.3,0-1.6,0-2.1-.5-2.1-2.1,0-5.4,0-10.7,0-16.1,0-1.6.5-2.1,2.1-2.1,5.5,0,10.9,0,16.4,0,6.4,0,6.3,0,6.4-6.5,0-1.9-.5-2.6-2.5-2.5-6.7.1-13.4,0-20,0-1.9,0-2.4-.6-2.3-2.4.1-3.7.1-7.4,0-11.1,0-1.8.6-2.3,2.3-2.2,5.5,0,10.9,0,16.4,0,6.3,0,6.2,0,6.2-6.4,0-1.8-.5-2.4-2.4-2.4-10.1,0-20.2,0-30.3,0-1.9,0-2.3.6-2.3,2.4,0,9.6,0,19.2,0,28.7ZM784.3,362.1c0,9.8,0,19.5,0,29.3,0,1.9.6,2.4,2.4,2.3,8.6,0,17.2,0,25.9,0,6.8,0,6.8,0,6.8-6.9s-.6-2.4-2.4-2.3c-6.7,0-13.4,0-20,0-1.8,0-2.5-.4-2.4-2.3.1-5.3.1-10.5,0-15.8,0-1.8.6-2.2,2.3-2.2,5.4,0,10.7,0,16.1,0,6.6,0,6.5,0,6.5-6.6,0-2.1-.8-2.4-2.6-2.4-6.7,0-13.4,0-20,0-1.7,0-2.3-.4-2.2-2.2.1-3.7.1-7.4,0-11.1,0-1.8.5-2.4,2.4-2.4,5.4.1,10.7,0,16.1,0,6.5,0,6.4,0,6.4-6.4,0-1.9-.6-2.3-2.4-2.3-10,0-20,.1-30.1,0-2.2,0-2.6.7-2.5,2.7,0,9.5,0,19,0,28.5ZM768.9,346c.2-3,.3-5.6.6-8.2.2-1.5-.4-2.2-1.6-2.9-8-4.9-16.6-6.6-25.8-4.6-16.6,3.5-26.7,16.8-25.9,34.4.6,12.2,6.3,21.6,17.3,27,11.4,5.5,22.9,5.2,34-1.3.7-.4,1.4-.7,1.4-1.7,0-3.3,0-6.6,0-10.6-6,4.8-12.2,7.6-19.3,7.8-7.4.2-13.6-2.4-18.2-8.3-6.6-8.4-6.4-22.4.4-30.7,3.2-3.9,7.3-6.4,12.2-7.3,9.2-1.9,17.3.6,24.9,6.6ZM168.1,395.3c1.7.2,3.6-.2,5.5-.6,7.5-1.4,13.1-6.7,14.6-13.8,1.8-8.4-.5-14.4-7.6-19.1-3.2-2.2-6.7-3.8-10.2-5.4-3-1.4-5.8-3-7.9-5.5-3.1-3.7-2.1-9,2-11.3,3.5-1.9,8.6-1.4,11.7,1.2,1.2,1,1.6,3.1,3.4,2.9,1.5-.2,2.8-1.3,4.2-2,.5-.3,1.1-.7,1.6-.9,1.4-.5,1.3-1.3.7-2.5-1.6-3.1-4-5.3-7.2-6.7-4.5-1.9-9.1-2.3-13.9-1.7-7.1.9-12.7,5.6-14.4,12.2-1.9,7.1.4,13.5,6.4,17.9,3.8,2.8,8.1,4.9,12.4,7,2.5,1.2,4.9,2.5,6.7,4.5,3.5,3.8,2.8,9.8-1.3,12.7-4.8,3.4-13.2,1.9-16.7-2.9-.9-1.2-.9-3.4-2.3-3.5-1.4-.1-2.9,1.1-4.3,1.8-.2.1-.5.3-.7.3-2.7.7-2.5,2.2-1.7,4.3,3,7.1,9.6,11.1,19,11.1ZM634,395.3c3.2,0,6.3-.4,9.3-1.7,6.4-2.6,10.1-7.3,11.2-14.2,1.1-7.2-.9-13-7.1-17.2-3.4-2.3-7.2-4.1-10.9-5.9-2.9-1.4-5.6-2.9-7.8-5.3-1.7-1.9-2.6-4.1-1.9-6.8,1.6-6.1,10.1-8,15.4-3.5,1.1.9,1.6,3,3.2,2.8,1.5-.2,2.8-1.3,4.3-2,.4-.2.8-.4,1.2-.6,1.7-.6,2-1.6,1.1-3.2-1.8-3-4.2-5.1-7.4-6.4-4.7-1.9-9.6-2.3-14.5-1.3-6.9,1.4-11.9,5.3-13.5,12.5-1.7,7.2.5,13.2,6.6,17.5,3.5,2.5,7.3,4.5,11.2,6.4,2.7,1.3,5.4,2.6,7.5,4.8,3.9,4,3.1,10.4-1.7,13.3-4.9,2.9-12.8,1.2-16.2-3.4-.8-1.1-.8-3.2-2.1-3.4-1.3-.1-2.7,1.1-4.1,1.7-.5.2-.9.5-1.4.6-2.1.5-2.1,1.7-1.5,3.5,2.8,7.5,9.6,11.7,19.1,11.7ZM401.4,366.6c0,6.7,0,13.4,0,20s0,6.9,6.9,7.1c2.7,0,3.3-.7,3.3-3.3-.1-16.1,0-32.2-.1-48.2,0-2.1.6-2.7,2.7-2.6,2.5.2,5.1,0,7.6,0,6.3,0,6.2,0,6.3-6.3,0-1.9-.6-2.3-2.4-2.3-11.5,0-23,0-34.6,0-6.7,0-6.6,0-6.5,6.6,0,1.7.7,2,2.2,2,4,0,8.1,0,12.1,0,2,0,2.5.6,2.5,2.6,0,8.2,0,16.3,0,24.5ZM926.9,366.8c0-8,.1-16,0-24,0-2.5.4-3.7,3.2-3.4,2.4.3,4.9,0,7.4,0,6,0,5.9,0,6-5.8,0-2.1-.5-2.8-2.7-2.8-11.4.1-22.9,0-34.3,0-6.7,0-6.6,0-6.4,6.7,0,1.5.5,2,2,1.9,4,0,7.9.1,11.9,0,2.3,0,3,.5,3,2.9-.1,14.6,0,29.2,0,43.8,0,2.4-1.1,5.5.5,7.1,1.5,1.4,4.6.2,6.9.4,2.3.3,2.7-.7,2.7-2.8-.1-8,0-16,0-24ZM281.1,362.2c0,9.8,0,19.5,0,29.3,0,1.7.5,2.3,2.2,2.2,8,0,16,0,24,0,6.7,0,6.6,0,6.7-6.7,0-2.2-.8-2.6-2.7-2.6-5.8.1-11.6,0-17.4,0-2.3,0-2.7-.7-2.7-2.8,0-14.3,0-28.7,0-43,0-2.5,1.2-5.9-.5-7.3-1.6-1.3-4.9-.3-7.4-.5-1.8-.1-2.2.5-2.2,2.2,0,9.7,0,19.3,0,29ZM438.6,362.4c0,7.9,0,15.8,0,23.7,0,2.4-1.1,5.6.5,7.1,1.6,1.5,4.7.2,7.1.5,2.1.2,2.7-.5,2.7-2.6,0-19.1,0-38.3,0-57.4,0-1.9-.3-2.9-2.6-2.7-1.7.2-3.5.2-5.3,0-2-.2-2.5.4-2.5,2.5.1,9.7,0,19.3,0,29Z"/>
  <path class="st1" d="M199,183c1.3-2.5,1.6-5,2.3-7.4,9.8-36.9,19.5-73.8,29.2-110.7.7-2.5,1.7-3.2,4.2-3.2,26.2.1,52.4,0,78.7,0,2.2,0,2.8.7,3.1,2.7,5.8,37,11.7,74.1,17.6,111.1,5.7,35.9,11.5,71.8,17.2,107.7.7,4.5.8,4.5-3.8,4.5-24.3,0-48.6,0-72.9,0-2,0-2.7-.6-2.9-2.5-2.1-21.7-4.3-43.4-6.5-65.1-2.1-20.6-4.2-41.3-6.4-62-.8.6-.8,1.5-1,2.3-11.4,41.4-22.9,82.7-34.3,124.1-.7,2.5-1.6,3.2-4.2,3.2-14.2-.1-28.3-.1-42.5,0-2.1,0-2.8-.7-3.3-2.6-11.4-41.5-22.9-83.1-34.4-124.6-.2-.8-.5-1.6-1.1-2.4-.9,8.6-1.8,17.3-2.6,25.9-1.7,16.5-3.4,33-5.1,49.6-1.5,14.6-3,29.2-4.4,43.8-.1,1.2-.3,2.4-.4,3.7-.2,2.2.4,5.1-1.1,6.2-1.5,1.1-4.2.4-6.4.4-23.4,0-46.8,0-70.2,0-1.9,0-2.7,0-2.3-2.5,4.3-24.3,8.4-48.6,12.5-73,4.5-26.2,9-52.5,13.4-78.7,3.9-23.1,7.9-46.2,11.8-69.4.3-2,1-2.6,3.1-2.6,26,0,51.9.1,77.9,0,2.3,0,2.9.9,3.4,2.8,10.4,39.5,20.8,78.9,31.3,118.6Z"/>
  <path class="st1" d="M489.1,174.5c0-36.7,0-73.4,0-110,0-2.2.4-2.9,2.8-2.9,25.3.1,50.7,0,76,.2,19.9.3,39.9,1.2,59,7.4,42,13.6,68.8,41.7,76.6,85.8,5.4,30.6,0,59.5-18.9,84.8-17.9,23.9-41.7,38.5-71.3,43.6-21.4,3.7-43,4.2-64.7,4.2-18.9,0-37.8,0-56.8,0-2.5,0-2.8-.7-2.8-2.9,0-36.8,0-73.5,0-110.3ZM569.9,174.7c0,13.9,0,27.8,0,41.7,0,1.8.4,2.4,2.3,2.3,8-.2,16-1,23.7-3.4,14.1-4.2,22.8-13.4,25.7-27.9,1.4-7,1.5-14.1.7-21.3-2.1-17.7-12.3-29.1-29.6-33.1-6.6-1.5-13.4-1.8-20.2-2-2.2,0-2.6.6-2.6,2.6,0,13.6,0,27.3,0,40.9Z"/>
  <path class="st1" d="M702.6,287.5c4.7-13.2,9.3-26.1,14-39.1,21.9-61.4,43.8-122.8,65.7-184.2.7-2,1.6-2.6,3.7-2.6,28.4,0,56.8,0,85.2,0,1.8,0,2.8.3,3.4,2.3,25.7,73.8,51.5,147.6,77.3,221.4.3.7.5,1.5.8,2.4h-2.5c-27.4,0-54.9,0-82.3,0-1.9,0-2.7-.5-3.2-2.4-1.9-7.9-4-15.8-5.9-23.8-.4-1.9-1.2-2.4-3.2-2.4-18.7,0-37.5,0-56.2,0-2.1,0-2.8.7-3.3,2.6-1.9,8-3.9,16-5.8,24.1-.3,1.3-.7,1.9-2.2,1.9-28.2,0-56.5,0-84.7,0-.2,0-.3,0-.8-.2ZM827.4,140.9c-.2.3-.5.5-.5.7-5.4,20.7-10.7,41.4-16.1,62.1-.4,1.6.3,1.7,1.6,1.7,9.9,0,19.9,0,29.8,0,1.5,0,2-.2,1.5-1.9-5.5-20.8-10.9-41.7-16.3-62.7Z"/>
  <path class="st1" d="M1120.9,136.2c-9.1-6.5-18.5-11.9-29.1-15-8.1-2.4-16.3-3.4-24.7-1.9-2.6.5-5.1,1.5-7.1,3.2-4.2,3.5-4.2,8.7-.1,12.3,3,2.7,6.7,4.2,10.4,5.6,9.7,3.7,20,5.4,30,7.9,19.4,4.7,34.5,15,43.3,33.4,5.3,10.9,6.2,22.6,5.4,34.5-2.9,41.2-34.6,66.6-66.8,74.1-27.7,6.4-55,3.7-81.9-5-12.4-4-24.2-9.4-35.6-15.7-1.6-.9-2-1.6-1.2-3.4,8.1-19.6,16.2-39.3,24.2-58.9.9-2.2,1.5-1.8,3.1-.8,11.4,7.8,23.2,15,36.5,19.1,7.9,2.4,15.9,3.8,24.2,2.5,2.8-.5,5.4-1.4,7.7-3.1,5.4-4.1,5.5-10.8.2-14.9-4.9-3.8-10.8-5.3-16.7-6.7-9.5-2.3-19.1-3.7-28.2-7.4-17.2-7-30.3-18.1-36.1-36.3-7.5-23.4-3.3-58.3,23.6-80.8,14.7-12.3,31.7-18.9,50.5-21.2,32.5-3.9,62.8,3.3,91.5,18.5,1.4.7,1.9,1.3,1.2,3-7.9,18.7-15.6,37.4-23.4,56.1-.1.3-.3.6-.6,1.1Z"/>
  <path class="st1" d="M457.1,175c0,36.6,0,73.2,0,109.8,0,2.4-.6,3-3,3-25.6,0-51.2,0-76.8,0-2.1,0-2.8-.3-2.8-2.7,0-73.6,0-147.2,0-220.9,0-2.1.5-2.6,2.6-2.6,25.8,0,51.6,0,77.3,0,2.3,0,2.7.7,2.7,2.8,0,36.9,0,73.7,0,110.6Z"/>
  <path class="st2" d="M199.8,362.3c0-18.3,14.9-32.8,33.5-32.8,18.5,0,33.5,14.8,33.5,32.9,0,18.1-15.2,32.9-33.6,32.8-18.5,0-33.4-14.7-33.4-33ZM210.4,362.5c0,13,10.2,23.4,22.9,23.4,12.6,0,22.9-10.6,22.9-23.4,0-12.9-10.3-23.5-22.9-23.5-12.8,0-23,10.4-23,23.6Z"/>
  <path class="st2" d="M530.3,362.7c0,18.1-15.2,32.7-33.8,32.6-18.4-.1-33.3-15-33.2-33.2.1-18,15.1-32.6,33.5-32.6,18.7,0,33.5,14.7,33.4,33.2ZM519.8,362.4c0-12.9-10.2-23.4-22.8-23.5-12.7,0-23.1,10.6-23,23.6,0,12.9,10.3,23.3,23,23.3,12.6,0,22.8-10.5,22.8-23.5Z"/>
  <path class="st2" d="M544.7,328.4c15.7,15.5,31.5,29.7,46.3,45.1.6-.9.3-1.9.3-2.8,0-12.3,0-24.6,0-36.9,0-2.4.7-2.9,3-2.8,6.5.1,6.5,0,6.5,6.6,0,18.3,0,36.6,0,54.9,0,.9.3,1.9-.4,3.2-15.3-15-31.1-29.3-46.1-44.9,0,.9,0,1.8,0,2.6,0,12.6,0,25.1,0,37.7,0,2-.5,2.7-2.6,2.7-6.9,0-6.9,0-6.9-6.8v-58.5Z"/>
  <path class="st2" d="M842.9,350.7c0,13.4,0,26.6,0,39.8,0,2.8-.8,3.3-3.4,3.3-6.1-.2-6.1,0-6.1-6.3v-55.4c0-.9,0-1.9,0-3.6,15.7,15.5,31.6,29.8,46.4,45.2.6-1,.3-2,.3-2.9,0-12.3,0-24.6,0-36.9,0-2.4.7-2.9,2.9-2.9,6.3.1,6.3,0,6.3,6.5v58.6c-15.7-15.5-31.5-29.8-46.6-45.3Z"/>
  <path class="st2" d="M1046,393.6c-3.8,0-7.1,0-10.4,0-1.2,0-1.6-1-2.1-1.7-5.9-8-11.9-15.9-17.8-23.9-.3-.4-.6-.9-1-1.3-.4-.5-.7-1.2-1.4-.9-.8.2-.5,1-.5,1.6,0,4.9,0,9.8,0,14.8,0,3.2,0,6.3,0,9.5,0,1.4-.4,2-1.9,2-7.8.3-7.8.3-7.8-7.5,0-17.5,0-35,0-52.5,0-2.2.5-2.9,2.7-2.8,6.2.3,12.5-.4,18.7.5,9.4,1.3,14.8,7.7,14.5,17.2-.3,9.4-3.6,13.6-12.7,16.2-2.4.7-.6,1.7-.1,2.3,6,8,12.1,16,18.1,24,.5.7,1,1.4,1.7,2.5ZM1013.4,348.7c0,2.5,0,4.9,0,7.4,0,1.2.4,1.8,1.6,1.7,2.5-.2,5.1-.3,7.6-.7,4.3-.8,6-3.2,6-7.9,0-4.6-1.9-7.5-5.9-8.6-2.6-.7-5.2-.6-7.9-.7-1.4,0-1.6.6-1.6,1.8,0,2.4,0,4.7,0,7.1Z"/>
  <path class="st2" d="M374.6,354.3c-.3,6.2.6,13.9-.4,21.5-1.4,10.5-7,16.6-17.4,18.7-5.9,1.2-11.9,1.1-17.8-.5-9.1-2.4-14.8-9.2-15.5-19.1-.9-14.1-.2-28.3-.4-42.4,0-1.3.5-1.7,1.7-1.6.2,0,.4,0,.5,0,2.5.1,5.8-1,7.4.4,1.6,1.5.5,4.8.5,7.3,0,9.8,0,19.7,0,29.5,0,1.8,0,3.7.3,5.5,1.5,8.5,6.7,12.3,16.3,12.1,8.3-.2,13.2-4.6,14.3-12.9.8-6.3.3-12.6.3-19,0-6.9,0-13.7,0-20.6,0-1.8.3-2.8,2.4-2.5,2.5.3,5.9-1.1,7.3.6,1.2,1.4.4,4.7.4,7.1,0,4.7,0,9.5,0,15.6Z"/>
  <path class="st2" d="M953.8,362c0-9.6,0-19.2,0-28.7,0-1.8.4-2.4,2.3-2.4,10.1,0,20.2,0,30.3,0,1.9,0,2.4.5,2.4,2.4,0,6.4,0,6.4-6.2,6.4-5.5,0-10.9,0-16.4,0-1.7,0-2.3.5-2.3,2.2.1,3.7.1,7.4,0,11.1,0,1.8.5,2.4,2.3,2.4,6.7-.1,13.4,0,20,0,2,0,2.5.6,2.5,2.5,0,6.5,0,6.5-6.4,6.5-5.5,0-10.9,0-16.4,0-1.6,0-2.1.5-2.1,2.1,0,5.4,0,10.7,0,16.1,0,1.6.5,2.1,2.1,2.1,6.8,0,13.5,0,20.3,0,1.8,0,2.4.4,2.4,2.3,0,6.9,0,6.9-6.8,6.9-8.6,0-17.2,0-25.9,0-1.8,0-2.4-.5-2.4-2.3,0-9.8,0-19.5,0-29.3Z"/>
  <path class="st2" d="M784.3,362.1c0-9.5,0-19,0-28.5,0-2,.3-2.7,2.5-2.7,10,.1,20,.1,30.1,0,1.8,0,2.4.4,2.4,2.3,0,6.4,0,6.4-6.4,6.4-5.4,0-10.7,0-16.1,0-1.9,0-2.4.6-2.4,2.4.1,3.7.1,7.4,0,11.1,0,1.8.5,2.2,2.2,2.2,6.7,0,13.4,0,20,0,1.8,0,2.6.3,2.6,2.4,0,6.6,0,6.6-6.5,6.6-5.4,0-10.7,0-16.1,0-1.6,0-2.3.3-2.3,2.2.1,5.3.1,10.5,0,15.8,0,1.9.7,2.3,2.4,2.3,6.7,0,13.4,0,20,0,1.8,0,2.4.5,2.4,2.3,0,6.9,0,6.9-6.8,6.9-8.6,0-17.2,0-25.9,0-1.8,0-2.4-.5-2.4-2.3,0-9.8,0-19.5,0-29.3Z"/>
  <path class="st2" d="M768.9,346c-7.6-6-15.7-8.4-24.9-6.6-4.9,1-9,3.5-12.2,7.3-6.8,8.3-7.1,22.3-.4,30.7,4.6,5.9,10.8,8.5,18.2,8.3,7.2-.2,13.4-3,19.3-7.8,0,4,0,7.3,0,10.6,0,1-.7,1.3-1.4,1.7-11.1,6.5-22.6,6.8-34,1.3-11-5.4-16.8-14.8-17.3-27-.8-17.6,9.3-30.9,25.9-34.4,9.2-1.9,17.8-.3,25.8,4.6,1.2.7,1.8,1.5,1.6,2.9-.3,2.6-.4,5.2-.6,8.2Z"/>
  <path class="st2" d="M168.1,395.3c-9.4,0-16-4-19-11.1-.9-2.1-1-3.7,1.7-4.3.3,0,.5-.2.7-.3,1.4-.6,2.9-1.9,4.3-1.8,1.4.1,1.4,2.3,2.3,3.5,3.5,4.7,11.8,6.2,16.7,2.9,4.1-2.9,4.8-9,1.3-12.7-1.9-2-4.3-3.4-6.7-4.5-4.3-2-8.5-4.2-12.4-7-6-4.4-8.3-10.8-6.4-17.9,1.7-6.6,7.4-11.2,14.4-12.2,4.8-.6,9.5-.3,13.9,1.7,3.2,1.4,5.6,3.6,7.2,6.7.6,1.1.7,1.9-.7,2.5-.6.2-1.1.6-1.6.9-1.4.7-2.8,1.8-4.2,2-1.8.2-2.2-1.9-3.4-2.9-3.1-2.5-8.2-3.1-11.7-1.2-4.1,2.3-5.1,7.6-2,11.3,2.1,2.6,5,4.1,7.9,5.5,3.5,1.7,7,3.2,10.2,5.4,7,4.8,9.4,10.7,7.6,19.1-1.5,7.2-7.1,12.5-14.6,13.8-1.9.3-3.8.7-5.5.6Z"/>
  <path class="st2" d="M634,395.3c-9.5,0-16.3-4.2-19.1-11.7-.7-1.8-.7-3,1.5-3.5.5-.1,1-.4,1.4-.6,1.4-.6,2.8-1.8,4.1-1.7,1.3.1,1.3,2.2,2.1,3.4,3.3,4.6,11.3,6.4,16.2,3.4,4.8-2.9,5.6-9.3,1.7-13.3-2.1-2.2-4.8-3.6-7.5-4.8-3.9-1.8-7.7-3.9-11.2-6.4-6.2-4.3-8.3-10.3-6.6-17.5,1.6-7.1,6.6-11,13.5-12.5,4.9-1,9.8-.6,14.5,1.3,3.2,1.3,5.7,3.4,7.4,6.4.9,1.6.7,2.6-1.1,3.2-.4.1-.8.4-1.2.6-1.4.7-2.8,1.8-4.3,2-1.6.2-2.1-1.9-3.2-2.8-5.3-4.5-13.8-2.6-15.4,3.5-.7,2.7.2,4.8,1.9,6.8,2.2,2.4,4.9,4,7.8,5.3,3.7,1.8,7.5,3.5,10.9,5.9,6.2,4.2,8.2,10,7.1,17.2-1,6.9-4.8,11.6-11.2,14.2-3,1.2-6.1,1.6-9.3,1.7Z"/>
  <path class="st2" d="M401.4,366.6c0-8.2,0-16.3,0-24.5,0-1.9-.5-2.6-2.5-2.6-4,.1-8.1,0-12.1,0-1.5,0-2.2-.3-2.2-2-.1-6.6-.2-6.6,6.5-6.6,11.5,0,23,0,34.6,0,1.8,0,2.4.4,2.4,2.3,0,6.3,0,6.3-6.3,6.3s-5.1.1-7.6,0c-2-.1-2.7.5-2.7,2.6,0,16.1,0,32.2.1,48.2,0,2.6-.6,3.4-3.3,3.3-6.9-.2-6.9,0-6.9-7.1s0-13.4,0-20Z"/>
  <path class="st2" d="M926.9,366.8c0,8,0,16,0,24,0,2.1-.4,3.1-2.7,2.8-2.3-.3-5.4.9-6.9-.4-1.7-1.5-.5-4.6-.5-7.1,0-14.6,0-29.2,0-43.8,0-2.4-.7-3-3-2.9-3.9.2-7.9,0-11.9,0-1.5,0-1.9-.4-2-1.9-.2-6.7-.3-6.7,6.4-6.7,11.4,0,22.9,0,34.3,0,2.3,0,2.8.7,2.7,2.8-.1,5.8,0,5.8-6,5.8s-4.9.2-7.4,0c-2.8-.3-3.3.8-3.2,3.4.2,8,0,16,0,24Z"/>
  <path class="st2" d="M281.1,362.2c0-9.7,0-19.3,0-29,0-1.7.4-2.4,2.2-2.2,2.5.2,5.8-.8,7.4.5,1.7,1.3.5,4.8.5,7.3,0,14.3,0,28.7,0,43,0,2.1.5,2.9,2.7,2.8,5.8-.2,11.6,0,17.4,0,2,0,2.8.3,2.7,2.6-.1,6.7,0,6.7-6.7,6.7-8,0-16,0-24,0-1.7,0-2.2-.5-2.2-2.2,0-9.8,0-19.5,0-29.3Z"/>
  <path class="st2" d="M438.6,362.4c0-9.7,0-19.3,0-29,0-2,.6-2.6,2.5-2.5,1.7.2,3.5.2,5.3,0,2.2-.3,2.6.7,2.6,2.7,0,19.1,0,38.3,0,57.4,0,2.1-.6,2.8-2.7,2.6-2.4-.3-5.6,1-7.1-.5-1.6-1.5-.5-4.7-.5-7.1,0-7.9,0-15.8,0-23.7Z"/>
  <path class="st0" d="M210.4,362.5c0-13.1,10.2-23.6,23-23.6,12.5,0,22.9,10.6,22.9,23.5,0,12.8-10.4,23.4-22.9,23.4-12.7,0-22.9-10.4-22.9-23.4Z"/>
  <path class="st0" d="M519.8,362.4c0,12.9-10.3,23.4-22.8,23.5-12.6,0-22.9-10.4-23-23.3,0-13,10.3-23.6,23-23.6,12.6,0,22.8,10.5,22.8,23.5Z"/>
  <path class="st0" d="M1013.4,348.7c0-2.4,0-4.7,0-7.1,0-1.1.2-1.8,1.6-1.8,2.6,0,5.3,0,7.9.7,3.9,1.1,5.9,4,5.9,8.6,0,4.7-1.7,7.1-6,7.9-2.5.5-5.1.5-7.6.7-1.3.1-1.7-.5-1.6-1.7,0-2.5,0-4.9,0-7.4Z"/>
</svg>